<svg xmlns="http://www.w3.org/2000/svg" version="1.1"
   xmlns:xlink="http://www.w3.org/1999/xlink"
   xmlns:svgjs="http://svgjs.dev/svgjs" width="2000" height="2000" viewBox="0 -50 2000 1700">
   <rect width="2000" height="1500" fill="#ffffff"></rect>
   <g transform="matrix(0.75,0,0,0.75,249.090909090909,282.7536437246963)">
      <svg viewBox="0 0 396 247" data-background-color="#ffffff" preserveAspectRatio="xMidYMid meet" height="1247" width="2000"
         xmlns="http://www.w3.org/2000/svg"
         xmlns:xlink="http://www.w3.org/1999/xlink">
         <g id="tight-bounds" transform="matrix(1,0,0,1,0.2400000000000091,-0.09999999999999432)">
            <svg viewBox="0 0 395.52 247.2" height="247.2" width="395.52">
               <g>
                  <svg></svg>
               </g>
               <g>
                  <svg viewBox="0 0 395.52 247.2" height="247.2" width="395.52">
                     <g transform="matrix(1,0,0,1,75.54432,55.649969420849416)">
                        <svg viewBox="0 0 244.43135999999998 135.90006115830116" height="135.90006115830116" width="244.43135999999998">
                           <g>
                              <svg viewBox="0 0 244.43135999999998 135.90006115830116" height="135.90006115830116" width="244.43135999999998">
                                 <g>
                                    <svg viewBox="0 0 244.43135999999998 135.90006115830116" height="135.90006115830116" width="244.43135999999998">
                                       <g>
                                          <svg viewBox="0 0 244.43135999999998 135.90006115830116" height="135.90006115830116" width="244.43135999999998">
                                             <g id="textblocktransform">
                                                <svg viewBox="0 0 244.43135999999998 135.90006115830116" height="135.90006115830116" width="244.43135999999998" id="textblock">
                                                   <g>
                                                      <svg viewBox="0 0 244.43135999999998 135.90006115830116" height="135.90006115830116" width="244.43135999999998">
                                                         <g transform="matrix(1,0,0,1,0,0)">
                                                            <svg width="244.43135999999998" viewBox="3.75 -35.5 64.75 36" height="135.90006115830116" data-palette-color="#001f3f">
                                                               <path d="M6.95-35L6.95-35Q8.15-35 9.08-34.13 10-33.25 10-31.95L10-31.95 10-3.05Q10-1.75 9.05-0.88 8.1 0 6.85 0L6.85 0Q5.45 0 4.6-0.88 3.75-1.75 3.75-3.05L3.75-3.05 3.75-31.95Q3.75-33.25 4.65-34.13 5.55-35 6.95-35ZM29.1-35L29.1-35Q30.5-35 31.35-34.13 32.2-33.25 32.2-31.95L32.2-31.95 32.2-3.05Q32.2-1.75 31.33-0.88 30.45 0 29 0L29 0Q27.8 0 26.88-0.88 25.95-1.75 25.95-3.05L25.95-3.05 25.95-31.95Q25.95-33.25 26.9-34.13 27.85-35 29.1-35ZM6.8-14.7L6.8-20.45 29.1-20.45 29.1-14.7 6.8-14.7ZM56.2 0.5L56.2 0.5Q52.4 0.5 49.1-0.9 45.8-2.3 43.3-4.78 40.8-7.25 39.37-10.5 37.95-13.75 37.95-17.5L37.95-17.5Q37.95-21.25 39.37-24.5 40.8-27.75 43.3-30.23 45.8-32.7 49.1-34.1 52.4-35.5 56.2-35.5L56.2-35.5Q58.55-35.5 60.75-35 62.95-34.5 64.8-33.5L64.8-33.5Q65.55-33.1 65.92-32.43 66.3-31.75 66.3-31.05L66.3-31.05Q66.3-29.85 65.5-28.9 64.7-27.95 63.45-27.95L63.45-27.95Q63.05-27.95 62.62-28.05 62.2-28.15 61.8-28.35L61.8-28.35Q60.55-28.9 59.15-29.2 57.75-29.5 56.2-29.5L56.2-29.5Q52.95-29.5 50.27-27.88 47.6-26.25 46.02-23.53 44.45-20.8 44.45-17.5L44.45-17.5Q44.45-14.25 46.02-11.5 47.6-8.75 50.27-7.13 52.95-5.5 56.2-5.5L56.2-5.5Q57.7-5.5 59.5-5.8 61.3-6.1 62.45-6.6L62.45-6.6 62-5.1 62-13.65 62.85-12.9 57.3-12.9Q56-12.9 55.12-13.75 54.25-14.6 54.25-15.9L54.25-15.9Q54.25-17.2 55.12-18.05 56-18.9 57.3-18.9L57.3-18.9 65.5-18.9Q66.8-18.9 67.65-18.03 68.5-17.15 68.5-15.85L68.5-15.85 68.5-5.25Q68.5-4.25 68.02-3.6 67.55-2.95 66.95-2.55L66.95-2.55Q64.65-1.15 61.92-0.33 59.2 0.5 56.2 0.5Z" opacity="1" transform="matrix(1,0,0,1,0,0)" fill="#000000" class="wordmark-text-0" data-fill-palette-color="primary" id="text-0"></path>
                                                            </svg>
                                                         </g>
                                                      </svg>
                                                   </g>
                                                </svg>
                                             </g>
                                          </svg>
                                       </g>
                                    </svg>
                                 </g>
                              </svg>
                           </g>
                        </svg>
                     </g>
                     <g>
                        <path d="M0 123.6c0-68.262 55.338-123.6 123.6-123.6 35.832 0 68.103 15.248 90.678 39.609l-8.549 0c-21.18-20.713-50.164-33.481-82.129-33.481-64.878 0-117.472 52.594-117.472 117.472 0 64.878 52.594 117.472 117.472 117.472 31.965 0 60.949-12.767 82.129-33.481l8.549 0c-22.575 24.361-54.846 39.609-90.678 39.609-68.262 0-123.6-55.338-123.6-123.6z" fill="#000000" stroke="transparent" data-fill-palette-color="tertiary"></path>
                     </g>
                  </svg>
               </g>
               <defs></defs>
            </svg>
            <rect width="395.52" height="247.2" fill="none" stroke="none" visibility="hidden"></rect>
         </g>
      </svg>
   </g>
</svg>